HIERARCHY
ROOT ui
{
	 OFFSET 0 0 0
	 CHANNELS 3 XPosition YPosition Z Position
	 EndSite
	 {
	 OFFSET 0 -1 0
	 }
}
ROOT li
{
	 OFFSET 0 0 0
	 CHANNELS 3 XPosition YPosition Z Position
	 EndSite
	 {
	 OFFSET 0 -1 0
	 }
}
ROOT ul
{
	 OFFSET 0 0 0
	 CHANNELS 3 XPosition YPosition Z Position
	 EndSite
	 {
	 OFFSET 0 -1 0
	 }
}
ROOT ll
{
	 OFFSET 0 0 0
	 CHANNELS 3 XPosition YPosition Z Position
	 EndSite
	 {
	 OFFSET 0 -1 0
	 }
}
ROOT tt
{
	 OFFSET 0 0 0
	 CHANNELS 3 XPosition YPosition Z Position
	 EndSite
	 {
	 OFFSET 0 -1 0
	 }
}
ROOT tb
{
	 OFFSET 0 0 0
	 CHANNELS 3 XPosition YPosition Z Position
	 EndSite
	 {
	 OFFSET 0 -1 0
	 }
}
ROOT td
{
	 OFFSET 0 0 0
	 CHANNELS 3 XPosition YPosition Z Position
	 EndSite
	 {
	 OFFSET 0 -1 0
	 }
}
ROOT v
{
	 OFFSET 0 0 0
	 CHANNELS 3 XPosition YPosition Z Position
	 EndSite
	 {
	 OFFSET 0 -1 0
	 }
}
ROOT bn
{
	 OFFSET 0 0 0
	 CHANNELS 3 XPosition YPosition Z Position
	 EndSite
	 {
	 OFFSET 0 -1 0
	 }
}
MOTION
Frames: 29
Frame Time: 0.002
4.462679922580719E-4	3.9581799507141114E-4	0		0.4166519775390625	-2.335537109375	0		-1.1850382080078126	-0.03499449920654297	0		-0.821576416015625	-2.3483203125	0		1.4081995849609374	-0.6388104858398438	0		3.14857275390625	-0.0937579345703125	0		4.70413525390625	0.033389110565185544	0		5.571841796875	0.17188265991210938	0		-0.36800942993164065	5.8850146484375	0		
0.0033211169242858885	0.0032012529373168946	0		0.41944216918945315	-2.33193896484375	0		-1.0961024169921876	-0.025660930633544923	0		-0.854753662109375	-2.340710693359375	0		1.2879024658203124	-0.6251964111328125	0		3.168162841796875	-0.11263196563720704	0		4.6982529296875	0.05309283828735351	0		5.57879345703125	0.1652141571044922	0		-0.23216644287109375	5.90443701171875	0		
1.3009899854660035E-4	8.490499854087829E-5	0		0.4083332214355469	-2.3231591796875	0		-1.0962694091796874	-0.02531221580505371	0		-0.7860836181640625	-2.349340087890625	0		1.4103399658203124	-0.636462890625	0		3.17804150390625	-0.10735694885253906	0		4.71893310546875	0.03553367233276367	0		5.57865185546875	0.16579159545898436	0		-0.36287350463867185	5.88504248046875	0		
-1.8942000344395637E-5	-6.045100092887878E-5	0		0.43895501708984375	-2.3398935546875	0		-1.0964295654296874	-0.024975772857666015	0		-0.8252490234375	-2.347651611328125	0		1.4068599853515624	-0.6411890258789062	0		3.161859130859375	-0.10769329833984374	0		4.70881298828125	0.034443099975585936	0		5.578490234375	0.16135951232910156	0		-0.2422919921875	5.8955390625	0		
-1.609400063753128E-4	-1.979770064353943E-4	0		0.40198593139648436	-2.3287373046875	0		-1.1046739501953124	-0.03154916763305664	0		-0.7924396362304688	-2.352895263671875	0		1.4064503173828125	-0.6419133911132813	0		3.1585927734375	-0.11510953521728516	0		4.70460595703125	0.026394771575927733	0		5.5753876953125	0.13994613647460938	0		-0.22485643005371095	5.90430224609375	0		
-2.952319979667664E-4	-3.269369900226593E-4	0		0.4128578186035156	-2.335186767578125	0		-1.09079443359375	-0.02943750190734863	0		-0.8633919067382813	-2.3447587890625	0		1.2891168212890625	-0.6379949340820312	0		3.1631943359375	-0.13254072570800782	0		4.7065361328125	0.028397993087768556	0		5.58036767578125	0.1600573272705078	0		-0.2075461730957031	5.9140546875	0		
0.0026205990314483642	0.002511054039001465	0		0.41698345947265625	-2.32852685546875	0		-1.0799599609375	-0.031316020965576175	0		-0.7764600219726563	-2.351798583984375	0		1.4207747802734374	-0.6384324340820312	0		3.16051123046875	-0.09876805877685547	0		4.71050390625	0.03251613616943359	0		5.58023095703125	0.1564012451171875	0		-0.20552900695800783	5.914009765625	0		
0.0025045039653778076	0.0024002699851989745	0		0.4389906005859375	-2.336104248046875	0		-1.096985107421875	-0.023824146270751953	0		-0.8272664794921875	-2.344933837890625	0		1.4114754638671876	-0.6368850708007813	0		3.130192138671875	-0.1114955062866211	0		4.72141064453125	0.031684370040893556	0		5.5843125	0.14079350280761718	0		-0.21882441711425782	5.90418408203125	0		
-6.463440060615539E-4	-6.560239791870117E-4	0		0.427268310546875	-2.33017578125	0		-1.09710009765625	-0.023593637466430666	0		-0.7941574096679688	-2.350281982421875	0		1.4050738525390625	-0.6443212280273437	0		3.15794482421875	-0.11994738006591797	0		4.708240234375	0.02535384750366211	0		5.5642568359375	0.14365103149414063	0		-0.21715447998046875	5.90414990234375	0		
-7.457039952278137E-4	-7.456499934196472E-4	0		0.4074212341308594	-2.3380966796875	0		-1.0972056884765624	-0.02338652992248535	0		-0.8328734741210938	-2.34858984375	0		1.4048001708984375	-0.644791259765625	0		3.141829833984375	-0.11965316009521484	0		4.69814892578125	0.02413907814025879	0		5.57474072265625	0.1232450714111328	0		-0.21565580749511717	5.90411865234375	0		
-8.366270065307618E-4	-8.254029750823975E-4	0		0.40879647827148435	-2.336305419921875	0		-1.097302001953125	-0.023201757431030274	0		-0.8315006713867188	-2.346499267578125	0		1.2786593017578125	-0.6373001708984375	0		3.146921875	-0.10656849670410157	0		4.70603271484375	0.020804618835449217	0		5.57044921875	0.13480961608886718	0		-0.33347528076171873	5.894896484375	0		
0.002126444101333618	0.0020581719875335694	0		0.400385498046875	-2.325341064453125	0		-1.1733651123046875	-0.02086920166015625	0		-0.8639724731445313	-2.338900634765625	0		1.4104405517578125	-0.6386729736328125	0		3.150570068359375	-0.1233697509765625	0		4.71207666015625	0.027637075424194336	0		5.57973095703125	0.14788475036621093	0		-0.21314480590820312	5.90406591796875	0		
0.002052258014678955	0.0019973920583724976	0		0.43365380859375	-2.340003662109375	0		-1.09746826171875	-0.02289276695251465	0		-0.8325975341796875	-2.346296630859375	0		1.281293212890625	-0.63498974609375	0		3.170687744140625	-0.1103326187133789	0		4.69713330078125	0.034927490234375	0		5.57965234375	0.14599960327148437	0		-0.34542538452148436	5.8851181640625	0		
-0.0010613429546356202	-0.0010063550472259521	0		0.39738424682617185	-2.328560302734375	0		-1.0975391845703124	-0.022765565872192382	0		-0.8330455322265625	-2.34621240234375	0		1.4039661865234374	-0.6461819458007813	0		3.160493896484375	-0.1177401885986328	0		4.71783349609375	0.018785589218139647	0		5.5808193359375	0.11490577697753906	0		-0.21122329711914062	5.90402880859375	0		
-0.0011218819618225098	-0.001048290967941284	0		0.4219176635742187	-2.334053466796875	0		-1.0976026611328125	-0.022655080795288086	0		-0.8354635620117188	-2.348106689453125	0		1.277927001953125	-0.6384208984375	0		3.157322265625	-0.12417325592041016	0		4.71188720703125	0.025181991577148437	0		5.5701484375	0.12775965881347656	0		-0.2104629669189453	5.90401611328125	0		
-0.0011763950586318969	-0.0010818849802017212	0		0.406543701171875	-2.336896484375	0		-1.173634033203125	-0.02034563636779785	0		-0.8357930908203125	-2.34804248046875	0		1.403685791015625	-0.646617431640625	0		3.156109619140625	-0.13355987548828124	0		4.705708984375	0.016692977905273437	0		5.5836318359375	0.12433366394042969	0		-0.3270182800292969	5.89287890625	0		
0.0018224430084228516	0.0018438889980316162	0		0.4383283386230469	-2.333476806640625	0		-1.0808255615234375	-0.029751880645751953	0		-0.827942138671875	-2.34011669921875	0		1.2927493896484374	-0.6349957275390625	0		3.16257763671875	-0.1009924087524414	0		4.70975732421875	0.02214580535888672	0		5.5865166015625	0.13536248779296875	0		-0.19414291381835938	5.91375927734375	0		
0.001778694987297058	0.0018257310390472413	0		0.3982200927734375	-2.3258837890625	0		-1.0977564697265625	-0.022411510467529296	0		-0.7983185424804687	-2.349553466796875	0		1.4065439453125	-0.6429561767578125	0		3.12925537109375	-0.11772260284423829	0		4.71763330078125	0.01663045120239258	0		5.58060791015625	0.11059175872802735	0		-0.34220538330078126	5.88515185546875	0		
-0.0013089760541915893	-0.0011361370086669922	0		0.43180734252929687	-2.34046826171875	0		-1.09779736328125	-0.022355447769165038	0		-0.83647998046875	-2.3478994140625	0		1.4034007568359375	-0.6470034790039062	0		3.160188232421875	-0.11942668151855469	0		4.70171044921875	0.023590829849243163	0		5.57415185546875	0.11024573516845704	0		-0.22272364807128905	5.89423046875	0		
-0.0013449779748916626	-0.001140360951423645	0		0.39585055541992187	-2.328907958984375	0		-1.0978343505859376	-0.02231071090698242	0		-0.80067431640625	-2.351451416015625	0		1.4033359375	-0.6470704345703125	0		3.1570498046875	-0.12552249145507813	0		4.7075771484375	0.017279821395874022	0		5.56995703125	0.127280517578125	0		-0.20833563232421876	5.9040068359375	0		
-0.0013781059980392456	-0.0011386979818344117	0		0.40561709594726564	-2.337079833984375	0		-1.0978680419921876	-0.02227670669555664	0		-0.8736856079101563	-2.345237548828125	0		1.2804466552734375	-0.6361073608398438	0		3.149356201171875	-0.10448643493652343	0		4.70960986328125	0.021109474182128905	0		5.57283984375	0.1355394287109375	0		-0.1940172119140625	5.91478515625	0		
0.0016396909952163697	0.0018190970420837401	0		0.4075819091796875	-2.335112060546875	0		-1.0938507080078126	-0.019317947387695312	0		-0.7988121948242187	-2.349439453125	0		1.409356201171875	-0.6402239990234375	0		3.160077880859375	-0.11970633697509765	0		4.70982373046875	0.0360403938293457	0		5.5770009765625	0.12139464569091797	0		-0.2071487274169922	5.9030087890625	0		
-0.0014374860525131225	-0.001119330048561096	0		0.424639892578125	-2.32937939453125	0		-1.0979278564453125	-0.022235843658447267	0		-0.834796142578125	-2.34583740234375	0		1.4093250732421876	-0.6402171630859375	0		3.15516357421875	-0.11262563323974609	0		4.70158447265625	0.023166730880737306	0		5.57923583984375	0.13859222412109376	0		-0.20813819885253906	5.9040380859375	0		
0.0015841599702835084	0.0018483619689941405	0		0.3956305541992188	-2.328886962890625	0		-1.09795458984375	-0.02222528076171875	0		-0.800895263671875	-2.35137890625	0		1.4031885986328125	-0.6470930786132812	0		3.1600224609375	-0.11967066955566406	0		4.7066708984375	0.03012892532348633	0		5.57402783203125	0.10946900939941406	0		-0.3415245361328125	5.8852255859375	0		
-0.0014897849559783935	-0.0010810070037841797	0		0.3956363525390625	-2.3288603515625	0		-1.097979736328125	-0.022218671798706055	0		-0.8388841552734375	-2.350749267578125	0		1.403171875	-0.6470529174804688	0		3.1391318359375	-0.111265869140625	0		4.69666259765625	0.03137617111206055	0		5.57401220703125	0.10963333129882813	0		-0.2073208312988281	5.90305615234375	0		
-0.0015140509605407716	-0.0010558969974517822	0		0.4055247802734375	-2.336989501953125	0		-1.085184326171875	-0.03342449569702149	0		-0.8368152465820312	-2.34777294921875	0		1.28622412109375	-0.6420974731445312	0		3.17173095703125	-0.134715087890625	0		4.70947314453125	0.021280294418334962	0		5.5727451171875	0.13586021423339845	0		-0.3398303527832031	5.88122900390625	0		
0.001511041045188904	0.0019233959913253784	0		0.41066827392578126	-2.33003369140625	0		-1.1571160888671874	-0.02725152587890625	0		-0.8666343994140625	-2.33827734375	0		1.2864268798828125	-0.6290411987304687	0		3.16224853515625	-0.10145561981201172	0		4.70867724609375	0.03543133544921875	0		5.58626953125	0.13386370849609375	0		-0.19245559692382813	5.91285595703125	0		
0.0014886360168457032	0.0019547669887542726	0		0.4335889892578125	-2.3373642578125	0		-1.094	-0.019273212432861328	0		-0.79876806640625	-2.3493701171875	0		1.4092584228515626	-0.639971435546875	0		3.140858154296875	-0.12399954986572266	0		4.7065732421875	0.030616348266601562	0		5.57690576171875	0.12241851043701171	0		-0.34112908935546876	5.8832880859375	0		
-0.0015811929702758789	-9.627029895782471E-4	0		0.3978138427734375	-2.3257373046875	0		-1.098069091796875	-0.022204261779785156	0		-0.83670458984375	-2.347742919921875	0		1.4031416015625	-0.646801513671875	0		3.155032470703125	-0.11210902404785156	0		4.7024541015625	0.024843362808227538	0		5.5769287109375	0.12792427825927735	0		-0.20895533752441406	5.90417138671875	0		
